PathFileType	4	(X/Y/Z)	C:\Users\Biomechanik\SynologyDrive\AlexP\Athlete_03\Athlete_3_22_07_06\sq_80_EMG\marker_experimental.trc																																																																																																																																																																												
DataRate	CameraRate	NumFrames	NumMarkers	Units	OrigDataRate	OrigDataStartFrame	OrigNumFrames																																																																																																																																																																								
200	200	5	58	mm	200	350	1403																																																																																																																																																																								
Frame#	Time	BL			BR			GLAB			RFHD			LFHD			C7			T6			SPINMOL			SPINM2			SPINM3			T12			BELTOL			BELT2			BELT3			SACROL			SACR2			SACR3			LTHOL			LTH2			LTH3			LSHAOL			LSHA2			LSHA3			LHEE			LTOE			LM5			RTHOL			RTH2			RTH3			RSHAOL			RSHA2			RSHA3			RHEE			RTOE			RM5			STRN			XIPH			LACR			LUAOL			LUA2			LUA3			LLAOL			LLA2			LLA3			LWRU			RACR			RUAOL			RUA3			RLAOL			RLA2			RLA3			RWRU			USERMO0			USERMO1			USERMO2			USERMO3			USERMO4			USERMO5		
		X1	Y1	Z1	X2	Y2	Z2	X3	Y3	Z3	X4	Y4	Z4	X5	Y5	Z5	X6	Y6	Z6	X7	Y7	Z7	X8	Y8	Z8	X9	Y9	Z9	X10	Y10	Z10	X11	Y11	Z11	X12	Y12	Z12	X13	Y13	Z13	X14	Y14	Z14	X15	Y15	Z15	X16	Y16	Z16	X17	Y17	Z17	X18	Y18	Z18	X19	Y19	Z19	X20	Y20	Z20	X21	Y21	Z21	X22	Y22	Z22	X23	Y23	Z23	X24	Y24	Z24	X25	Y25	Z25	X26	Y26	Z26	X27	Y27	Z27	X28	Y28	Z28	X29	Y29	Z29	X30	Y30	Z30	X31	Y31	Z31	X32	Y32	Z32	X33	Y33	Z33	X34	Y34	Z34	X35	Y35	Z35	X36	Y36	Z36	X37	Y37	Z37	X38	Y38	Z38	X39	Y39	Z39	X40	Y40	Z40	X41	Y41	Z41	X42	Y42	Z42	X43	Y43	Z43	X44	Y44	Z44	X45	Y45	Z45	X46	Y46	Z46	X47	Y47	Z47	X48	Y48	Z48	X49	Y49	Z49	X50	Y50	Z50	X51	Y51	Z51	X52	Y52	Z52	X53	Y53	Z53	X54	Y54	Z54	X55	Y55	Z55	X56	Y56	Z56	X57	Y57	Z57	X58	Y58	Z58
																																																																																																																																																																															
351	1.75	187.2816162	1266.300903	-2280.493652	207.7205353	1272.700562	-58.3260498	542.4293823	1446.150269	-1145.03125	478.4720459	1459.308228	-1071.934082	483.9902954	1462.755981	-1225.724854	297.0605774	1371.966309	-1152.571289	144.7754059	1245.891357	-1164.161255	122.4191589	1216.286987	-1170.565186	87.03751373	1161.567383	-1124.19458	98.66333008	1159.173462	-1172.730469	81.85871124	1103.136841	-1173.027466	46.93228912	1066.883911	-1172.332153	34.40149307	1006.520142	-1121.558105	30.9299221	1006.771667	-1171.608887	29.66257668	929.9252319	-1199.643311	36.40840149	939.6520996	-1149.817749	4.626145363	882.4846802	-1160.861328	164.4224091	725.6325073	-1420.893066	123.7627945	656.8884888	-1415.955811	170.7346344	664.9806519	-1432.867676	147.364502	327.5338135	-1522.21814	115.1076584	255.6721802	-1528.420166	161.7483826	269.4800415	-1539.236572	115.8083267	35.61776733	-1510.765015	322.776886	49.06219101	-1550.605713	265.4570313	25.65787125	-1648.564331	122.7766342	696.0227661	-920.3037109	160.6178589	634.8427734	-885.645874	116.1455765	635.090271	-909.2352295	87.82791138	317.5307312	-826.7780762	132.8256531	261.5525208	-793.1591797	89.43587494	256.7110596	-817.843811	89.84294128	35.498703	-845.5257568	283.3661499	46.22883987	-767.1201782	215.9974365	36.56661987	-682.9592285	382.328064	1221.218384	-1162.512939	349.438385	1071.071167	-1159.078369	266.8309937	1315.814941	-1347.321655	133.5071869	1232.303711	-1375.702759	94.80915833	1193.266235	-1338.762207	97.78562164	1189.161377	-1389.265381	80.9513092	1156.886475	-1463.980957	124.9961853	1170.377441	-1509.836792	124.2600327	1203.291504	-1472.128296	173.8250275	1244.180298	-1525.553589	272.6930542	1312.791992	-974.4599609	143.6722717	1214.960938	-937.5282593	85.80493164	1192.057739	-941.3103638	93.00982666	1179.363525	-862.3662109	142.4353333	1220.899048	-866.5994263	133.0131226	1203.526367	-819.2941895	169.062439	1240.300781	-797.40802	0.060936101	0.0124986	-0.070972703	0.00928741	0.0519084	-0.0438913	0.027879	0.0246557	-0.0272872	0.080096997	0.193477005	-0.808632016	0.374976993	2.868839979	-0.355922014	2.923719883	0	0
352	1.755	187.2854309	1266.190796	-2280.570557	207.6529541	1272.694458	-58.40675354	542.3925781	1446.105469	-1144.998047	478.3849487	1459.268799	-1071.944092	483.9892273	1462.670776	-1225.730835	297.0603943	1371.901978	-1152.616699	144.7466278	1245.893311	-1164.217651	122.3779984	1216.302002	-1170.614624	86.96289063	1161.619019	-1124.231079	98.59671783	1159.200073	-1172.761963	81.76973724	1103.170166	-1173.041748	46.80657959	1066.930542	-1172.332031	34.23723602	1006.596313	-1121.537964	30.77649307	1006.825073	-1171.589111	29.49867058	929.9499512	-1199.580078	36.23940659	939.6836548	-1149.766968	4.45050621	882.5174561	-1160.793213	164.2290039	725.6035156	-1420.818848	123.5683517	656.8575439	-1415.892944	170.5486298	664.9510498	-1432.787598	147.2519684	327.5213623	-1522.166016	115.0150528	255.6541748	-1528.398193	161.6549072	269.4739685	-1539.196411	115.7854767	35.60430527	-1510.786865	322.7741394	49.07031631	-1550.605103	265.4587708	25.66404533	-1648.55957	122.6453857	696.043457	-920.2131348	160.5046234	634.8734741	-885.5546265	116.0277939	635.1102295	-909.1370239	87.77436829	317.5388184	-826.6928101	132.7822113	261.5591125	-793.0921021	89.38504791	256.7193298	-817.7662964	89.83260345	35.4968605	-845.5128784	283.3609619	46.23801422	-767.1179199	215.9884338	36.55000687	-682.9649658	382.271698	1221.118652	-1162.544678	349.3023376	1070.982666	-1159.08667	266.8225098	1315.738159	-1347.378052	133.4837952	1232.250977	-1375.758423	94.7650528	1193.235474	-1338.816895	97.74694061	1189.120239	-1389.318237	80.90415955	1156.851196	-1464.0271	124.9478302	1170.325073	-1509.884521	124.2156982	1203.249634	-1472.17627	173.7927551	1244.111084	-1525.618408	272.6600342	1312.73291	-974.512085	143.6120605	1214.938721	-937.5753784	85.72904968	1192.051147	-941.3703613	92.94426727	1179.350098	-862.4237671	142.3805389	1220.870605	-866.670166	132.9574738	1203.506226	-819.3557739	169.0153961	1240.275757	-797.4776001	0.0621408	0.0123062	-0.070727699	0.00913916	0.051160999	-0.042585801	0.028444299	0.0264921	-0.027245101	0.080266997	0.192893997	-0.804378986	0.372346997	2.867949963	-0.362527996	2.924139977	0	0
353	1.76	187.2908325	1266.080933	-2280.647217	207.5865021	1272.699585	-58.48792648	542.3615723	1446.055908	-1144.968262	478.3036804	1459.227051	-1071.957275	483.9926758	1462.582397	-1225.739868	297.0613403	1371.838867	-1152.665039	144.7192688	1245.895508	-1164.273315	122.3386154	1216.316895	-1170.663696	86.88973236	1161.670044	-1124.267578	98.5313797	1159.226318	-1172.793335	81.68224335	1103.203369	-1173.055786	46.68334579	1066.976929	-1172.331055	34.07631302	1006.671753	-1121.5177	30.62606049	1006.878174	-1171.56897	29.33762741	929.9763794	-1199.516479	36.07409286	939.7156372	-1149.716675	4.277314663	882.5516357	-1160.726196	164.0345001	725.5766602	-1420.74939	123.3739243	656.8292236	-1415.832764	170.3602905	664.9234619	-1432.712524	147.1323395	327.5081177	-1522.115601	114.9177017	255.63414	-1528.374268	161.5553284	269.4671936	-1539.158203	115.7634659	35.59129715	-1510.808105	322.770752	49.07888412	-1550.605835	265.4613342	25.66864777	-1648.55481	122.5167007	696.0634766	-920.1268311	160.3944244	634.9038086	-885.4681396	115.9135666	635.1293335	-909.043457	87.7253418	317.5452576	-826.614624	132.7414856	261.5641785	-793.0282593	89.33799744	256.7267456	-817.6942749	89.82317352	35.49523544	-845.5014038	283.3562012	46.24638748	-767.116333	215.9806061	36.53527832	-682.9703979	382.2171021	1221.020264	-1162.577515	349.1651917	1070.896118	-1159.095459	266.8155518	1315.66272	-1347.436157	133.4637451	1232.196533	-1375.819458	94.72429657	1193.203125	-1338.876465	97.71349335	1189.076416	-1389.375488	80.86434174	1156.81311	-1464.07605	124.9077911	1170.271484	-1509.934204	124.1769791	1203.207275	-1472.224121	173.7661438	1244.041748	-1525.683472	272.6299438	1312.677612	-974.5656128	143.5582123	1214.917114	-937.62323	85.66181946	1192.044678	-941.428772	92.8848877	1179.336548	-862.4797363	142.3306274	1220.84375	-866.7383423	132.9068146	1203.487671	-819.4154663	168.971756	1240.253906	-797.546875	0.063588999	0.0120945	-0.070638098	0.00898394	0.050481498	-0.041526701	0.028904799	0.028393401	-0.027300401	0.080747597	0.192211002	-0.800180972	0.369901001	2.866940022	-0.369024009	2.924580097	0	0
354	1.765	187.2982483	1265.971313	-2280.724121	207.5211792	1272.71582	-58.56938553	542.3366089	1446.001343	-1144.942505	478.2289429	1459.18335	-1071.973633	484.0005493	1462.490845	-1225.752197	297.0634766	1371.776978	-1152.71582	144.6933289	1245.897949	-1164.328125	122.3010635	1216.331543	-1170.712769	86.81782532	1161.720581	-1124.304199	98.46736145	1159.252319	-1172.824829	81.59635925	1103.236816	-1173.07019	46.56268311	1067.023193	-1172.329956	33.9189682	1006.746033	-1121.498047	30.47865486	1006.931274	-1171.549316	29.17892075	930.0039063	-1199.454346	35.91235352	939.7478027	-1149.668091	4.106583118	882.586731	-1160.661743	163.8385773	725.5517578	-1420.685547	123.1793823	656.8030396	-1415.775391	170.1694031	664.8977661	-1432.643188	147.0060425	327.4938354	-1522.066895	114.8159714	255.6117859	-1528.347534	161.4499359	269.4594727	-1539.121948	115.7423248	35.57875443	-1510.828613	322.7668152	49.08786774	-1550.608154	265.4647522	25.67164421	-1648.550171	122.390831	696.0824585	-920.0461426	160.2876892	634.9332886	-885.3878784	115.8034515	635.1473389	-908.9562988	87.68041229	317.5500488	-826.5446777	132.7032776	261.567749	-792.96875	89.29478455	256.7327271	-817.6293335	89.81465912	35.49376297	-845.491333	283.3518982	46.25392914	-767.1154785	215.9738617	36.52243805	-682.975708	382.1643066	1220.923584	-1162.611328	349.0274963	1070.811401	-1159.10498	266.8100281	1315.588745	-1347.495728	133.4465027	1232.141602	-1375.885742	94.68683624	1193.170166	-1338.940552	97.68519592	1189.030273	-1389.436768	80.831604	1156.772949	-1464.127441	124.8758621	1170.216919	-1509.985352	124.1441345	1203.164307	-1472.272339	173.745224	1243.972656	-1525.748291	272.6028137	1312.625977	-974.6204224	143.5103302	1214.896606	-937.6724854	85.60153198	1192.040039	-941.4859009	92.83082581	1179.323975	-862.5344238	142.2851105	1220.819458	-866.803894	132.8604279	1203.471436	-819.4735107	168.9310913	1240.235352	-797.6159058	0.065266103	0.0118755	-0.070647903	0.00882392	0.049856599	-0.040698599	0.029253099	0.0303034	-0.0274451	0.081506804	0.191356003	-0.796079993	0.367651999	2.865720034	-0.375209004	2.925040007	0	0
355	1.77	187.308197	1265.861816	-2280.801758	207.4570313	1272.743164	-58.6509552	542.3178711	1445.94165	-1144.921143	478.1611938	1459.137451	-1071.993164	484.0125427	1462.395996	-1225.767822	297.066864	1371.716431	-1152.768555	144.6688385	1245.901001	-1164.382202	122.2654037	1216.346191	-1170.761597	86.74703217	1161.770508	-1124.341553	98.40472412	1159.27832	-1172.856934	81.51222992	1103.270386	-1173.085327	46.44472885	1067.069458	-1172.329224	33.76540756	1006.819092	-1121.479858	30.33429337	1006.984436	-1171.53064	29.02191544	930.0317993	-1199.395386	35.75403976	939.7796631	-1149.622437	3.938361406	882.6221924	-1160.601196	163.6407776	725.5286865	-1420.627686	122.9844208	656.7783813	-1415.721069	169.9756622	664.8740845	-1432.580566	146.874054	327.4784241	-1522.019897	114.7106323	255.5870514	-1528.317505	161.3395081	269.4507446	-1539.087524	115.7220917	35.56670761	-1510.848145	322.7623291	49.09718704	-1550.611694	265.4690552	25.67304611	-1648.545532	122.2682571	696.1002808	-919.9719849	160.1850433	634.961792	-885.3151855	115.6980972	635.1640625	-908.8766479	87.63925934	317.5532837	-826.4834595	132.6673584	261.5700073	-792.9142456	89.2554245	256.7368164	-817.5726318	89.80709076	35.49239731	-845.4827881	283.3480835	46.26062393	-767.1153564	215.9681091	36.51145172	-682.9810791	382.1133423	1220.828491	-1162.645996	348.8898926	1070.728394	-1159.115112	266.8059082	1315.516724	-1347.556396	133.4312286	1232.086792	-1375.956543	94.65240479	1193.137207	-1339.008423	97.66163635	1188.983032	-1389.501343	80.80536652	1156.731323	-1464.180664	124.8514328	1170.161865	-1510.037476	124.1171646	1203.12085	-1472.320801	173.7297974	1243.903931	-1525.812866	272.5786133	1312.577637	-974.6764526	143.4677429	1214.878174	-937.7237549	85.54651642	1192.039429	-941.5425415	92.78091431	1179.313843	-862.5884399	142.2432404	1220.798462	-866.8670654	132.8172913	1203.458374	-819.5302734	168.892868	1240.220825	-797.6848145	0.067116998	0.0116571	-0.070631199	0.00865874	0.049247101	-0.040076301	0.029473901	0.032136898	-0.0276617	0.082426697	0.190338999	-0.792065978	0.365666986	2.864249945	-0.380883008	2.925559998	0	0
